<?xml version="1.0" standalone="no"?>
<!DOCTYPE svg PUBLIC "-//W3C//DTD SVG 1.1//EN" "http://www.w3.org/Graphics/SVG/1.1/DTD/svg11.dtd" >
<svg xmlns="http://www.w3.org/2000/svg">
<metadata></metadata>
<defs>
<font id="tera_devamedium" horiz-adv-x="1228" >
<font-face units-per-em="2048" ascent="1638" descent="-410" />
<missing-glyph horiz-adv-x="500" />
<glyph d="M184 -83v1493h860v-1493h-860zM292 18h636v1263h-636v-1263z" />
<glyph d="M184 -83v1493h860v-1493h-860zM292 18h636v1263h-636v-1263z" />
<glyph unicode="&#xd;" d="M184 -83v1493h860v-1493h-860zM292 18h636v1263h-636v-1263z" />
<glyph d="M184 -83v1493h860v-1493h-860zM292 18h636v1263h-636v-1263z" />
<glyph d="M184 -83v1493h860v-1493h-860zM292 18h636v1263h-636v-1263z" />
<glyph d="M184 -83v1493h860v-1493h-860zM292 18h636v1263h-636v-1263z" />
<glyph d="M184 -83v1493h860v-1493h-860zM292 18h636v1263h-636v-1263z" />
<glyph d="M184 -83v1493h860v-1493h-860zM292 18h636v1263h-636v-1263z" />
<glyph d="M184 -83v1493h860v-1493h-860zM292 18h636v1263h-636v-1263z" />
<glyph d="M184 -83v1493h860v-1493h-860zM292 18h636v1263h-636v-1263z" />
<glyph d="M184 -83v1493h860v-1493h-860zM292 18h636v1263h-636v-1263z" />
<glyph unicode="&#x9;" d="M184 -83v1493h860v-1493h-860zM292 18h636v1263h-636v-1263z" />
<glyph unicode="&#xa;" d="M184 -83v1493h860v-1493h-860zM292 18h636v1263h-636v-1263z" />
<glyph d="M184 -83v1493h860v-1493h-860zM292 18h636v1263h-636v-1263z" />
<glyph d="M184 -83v1493h860v-1493h-860zM292 18h636v1263h-636v-1263z" />
<glyph d="M184 -83v1493h860v-1493h-860zM292 18h636v1263h-636v-1263z" />
<glyph d="M184 -83v1493h860v-1493h-860zM292 18h636v1263h-636v-1263z" />
<glyph d="M184 -83v1493h860v-1493h-860zM292 18h636v1263h-636v-1263z" />
<glyph d="M184 -83v1493h860v-1493h-860zM292 18h636v1263h-636v-1263z" />
<glyph d="M184 -83v1493h860v-1493h-860zM292 18h636v1263h-636v-1263z" />
<glyph d="M184 -83v1493h860v-1493h-860zM292 18h636v1263h-636v-1263z" />
<glyph d="M184 -83v1493h860v-1493h-860zM292 18h636v1263h-636v-1263z" />
<glyph d="M184 -83v1493h860v-1493h-860zM292 18h636v1263h-636v-1263z" />
<glyph d="M184 -83v1493h860v-1493h-860zM292 18h636v1263h-636v-1263z" />
<glyph d="M184 -83v1493h860v-1493h-860zM292 18h636v1263h-636v-1263z" />
<glyph d="M184 -83v1493h860v-1493h-860zM292 18h636v1263h-636v-1263z" />
<glyph d="M184 -83v1493h860v-1493h-860zM292 18h636v1263h-636v-1263z" />
<glyph d="M184 -83v1493h860v-1493h-860zM292 18h636v1263h-636v-1263z" />
<glyph d="M184 -83v1493h860v-1493h-860zM292 18h636v1263h-636v-1263z" />
<glyph d="M184 -83v1493h860v-1493h-860zM292 18h636v1263h-636v-1263z" />
<glyph d="M184 -83v1493h860v-1493h-860zM292 18h636v1263h-636v-1263z" />
<glyph d="M184 -83v1493h860v-1493h-860zM292 18h636v1263h-636v-1263z" />
<glyph d="M184 -83v1493h860v-1493h-860zM292 18h636v1263h-636v-1263z" />
<glyph unicode=" " />
<glyph unicode="!" d="M184 -83v1493h860v-1493h-860zM292 18h636v1263h-636v-1263z" />
<glyph unicode="&#x22;" d="M184 -83v1493h860v-1493h-860zM292 18h636v1263h-636v-1263z" />
<glyph unicode="#" d="M184 -83v1493h860v-1493h-860zM292 18h636v1263h-636v-1263z" />
<glyph unicode="$" d="M184 -83v1493h860v-1493h-860zM292 18h636v1263h-636v-1263z" />
<glyph unicode="%" d="M184 -83v1493h860v-1493h-860zM292 18h636v1263h-636v-1263z" />
<glyph unicode="&#x26;" d="M184 -83v1493h860v-1493h-860zM292 18h636v1263h-636v-1263z" />
<glyph unicode="'" d="M184 -83v1493h860v-1493h-860zM292 18h636v1263h-636v-1263z" />
<glyph unicode="(" d="M184 -83v1493h860v-1493h-860zM292 18h636v1263h-636v-1263z" />
<glyph unicode=")" d="M184 -83v1493h860v-1493h-860zM292 18h636v1263h-636v-1263z" />
<glyph unicode="*" d="M184 -83v1493h860v-1493h-860zM292 18h636v1263h-636v-1263z" />
<glyph unicode="+" d="M184 -83v1493h860v-1493h-860zM292 18h636v1263h-636v-1263z" />
<glyph unicode="," d="M184 -83v1493h860v-1493h-860zM292 18h636v1263h-636v-1263z" />
<glyph unicode="-" d="M184 -83v1493h860v-1493h-860zM292 18h636v1263h-636v-1263z" />
<glyph unicode="." d="M184 -83v1493h860v-1493h-860zM292 18h636v1263h-636v-1263z" />
<glyph unicode="/" d="M184 -83v1493h860v-1493h-860zM292 18h636v1263h-636v-1263z" />
<glyph unicode="0" d="M184 -83v1493h860v-1493h-860zM292 18h636v1263h-636v-1263z" />
<glyph unicode="1" d="M184 -83v1493h860v-1493h-860zM292 18h636v1263h-636v-1263z" />
<glyph unicode="2" d="M184 -83v1493h860v-1493h-860zM292 18h636v1263h-636v-1263z" />
<glyph unicode="3" d="M184 -83v1493h860v-1493h-860zM292 18h636v1263h-636v-1263z" />
<glyph unicode="4" d="M184 -83v1493h860v-1493h-860zM292 18h636v1263h-636v-1263z" />
<glyph unicode="5" d="M184 -83v1493h860v-1493h-860zM292 18h636v1263h-636v-1263z" />
<glyph unicode="6" d="M184 -83v1493h860v-1493h-860zM292 18h636v1263h-636v-1263z" />
<glyph unicode="7" d="M184 -83v1493h860v-1493h-860zM292 18h636v1263h-636v-1263z" />
<glyph unicode="8" d="M184 -83v1493h860v-1493h-860zM292 18h636v1263h-636v-1263z" />
<glyph unicode="9" d="M184 -83v1493h860v-1493h-860zM292 18h636v1263h-636v-1263z" />
<glyph unicode=":" d="M184 -83v1493h860v-1493h-860zM292 18h636v1263h-636v-1263z" />
<glyph unicode=";" d="M184 -83v1493h860v-1493h-860zM292 18h636v1263h-636v-1263z" />
<glyph unicode="&#x3c;" d="M184 -83v1493h860v-1493h-860zM292 18h636v1263h-636v-1263z" />
<glyph unicode="=" d="M184 -83v1493h860v-1493h-860zM292 18h636v1263h-636v-1263z" />
<glyph unicode="&#x3e;" d="M184 -83v1493h860v-1493h-860zM292 18h636v1263h-636v-1263z" />
<glyph unicode="?" d="M184 -83v1493h860v-1493h-860zM292 18h636v1263h-636v-1263z" />
<glyph unicode="@" d="M184 -83v1493h860v-1493h-860zM292 18h636v1263h-636v-1263z" />
<glyph unicode="A" horiz-adv-x="2150" d="M179 -318q196 297 196 521q26 174 26 326q0 373 -153 642q192 150 273 207h370q-275 -346 -275 -663q0 -17 2 -49v-1076h-439v92zM858 -90l784 5v1451h330v-1776h-746z" />
<glyph unicode="B" horiz-adv-x="2150" d="M176 -357v1685l1459 -1257q51 225 51 437q0 214 -51 413l-201 2v149l541 307v-1786h-327l-1133 996l3 -637q9 -12 73 -88l75 -83v-138h-490z" />
<glyph unicode="C" horiz-adv-x="2150" d="M171 -412v1774l336 -315v-1124h1002l261 -335h-1599zM853 52q384 1069 1126 1325v-1738l-310 411q109 201 109 379q0 177 -109 336q-222 -107 -436 -713h-380z" />
<glyph unicode="D" horiz-adv-x="2150" d="M230 -406v1170q35 408 288 618h437q-316 -277 -355 -723v-789h595v1499l726 -266l-51 -89q-78 6 -156 6t-156 -6q-109 -352 -109 -710t109 -710h-1328z" />
<glyph unicode="E" horiz-adv-x="2150" d="M201 319q137 933 875 1057h355v-25q-807 -307 -807 -842v-10q758 -247 852 -906h-400v5q0 489 -875 721zM1122 542l491 695h336v-361l-754 -382z" />
<glyph unicode="F" horiz-adv-x="2150" d="M192 -413v1387q66 306 251 393h461q-344 -193 -359 -610v-869h432q97 519 652 709l-3 783h333v-1013q-719 -255 -723 -780h-1044z" />
<glyph unicode="G" horiz-adv-x="2150" d="M204 364q204 807 1013 1011v-309q-491 -192 -657 -588l566 -480l326 297q87 266 87 532t-87 533h272v-1144l223 -208v-415l-391 410l-425 -351z" />
<glyph unicode="H" horiz-adv-x="2150" d="M216 1351v28h293q-1 -29 -1 -86q0 -825 706 -1324l284 240q-330 232 -488 659q526 153 659 501l194 -227l-475 -373q180 -340 547 -544l-736 -634q-983 545 -983 1760z" />
<glyph unicode="I" horiz-adv-x="1843" d="M63 120l7 124l591 295v842h341v-672l779 346v-653l-180 185l-599 -172q3 -510 231 -653l-304 -170q-213 256 -268 715z" />
<glyph unicode="J" horiz-adv-x="2150" d="M189 1145q105 85 238 135q212 86 524 98q528 -12 1010 -281l-541 -473q-99 -86 -99 -160q0 -10 1 -15l574 -567l-85 -290h-1496l604 776zM683 1015l466 -376l293 356q-182 108 -381 108q-179 0 -378 -88zM768 -178l724 -5l-350 373z" />
<glyph unicode="K" horiz-adv-x="2150" d="M233 418v907h318l-2 -781q58 -568 494 -643h522q84 238 84 508q0 223 -58 464q-43 312 -384 504h460q185 -86 251 -392v-1384h-1043q-486 98 -642 817z" />
<glyph unicode="L" horiz-adv-x="2150" d="M419 -408v1310q516 301 813 734l242 -257l-724 -649v-825h981v-313h-1312z" />
<glyph unicode="M" horiz-adv-x="2150" d="M222 574v370l761 455v-1794l-262 143v1112zM1115 -407v1806l813 -486v-368l-551 315v-1112z" />
<glyph unicode="N" horiz-adv-x="2150" d="M198 58v381l513 -295v1143l270 148v-1845zM1116 -410v1857l269 -160v-1143l567 324v-378z" />
<glyph unicode="O" horiz-adv-x="2150" d="M281 391q0 323 232 562q6 6 13 12t16.5 14t14.5 12q99 84 196 130l182 -429l-102 -84l-161 166q-156 -163 -156 -389q0 -229 161 -390q169 -164 388 -164h10q227 5 391 169q169 166 169 396q0 20 -3 33q-5 93 -20 125q-39 130 -146 233q-163 163 -381 163h-10 q-31 0 -69 -5v513l199 102v-385q253 -43 432 -222q233 -240 233 -562q0 -332 -233 -565q-232 -232 -562 -232q-327 0 -562 232q-232 232 -232 565z" />
<glyph unicode="P" horiz-adv-x="2150" d="M250 -405v1783h959q204 -497 587 -497q51 0 105 9v-749q-246 -517 -489 -517q-26 0 -51 6q285 356 285 780q0 120 -20 234h-7q-330 0 -583 419h-393v-1462l-8 -6h-385z" />
<glyph unicode="Q" horiz-adv-x="2150" d="M179 513q0 59 9 116q60 394 414 558q340 160 642 160h28q126 -126 134 -283q-556 -49 -733 -207q-200 -178 -200 -367q0 -43 8 -78q49 -228 225 -389q163 121 396 121q236 0 465 -113q56 -26 81 -36q9 228 9 421q0 1014 -236 1014l550 71l-25 -1907q-158 37 -197 58 q-66 34 -212 101q-289 131 -412 131q-121 0 -207 -23q-155 -42 -265 -164q-20 -30 -28 -43q-69 65 -111 114q-335 391 -335 745z" />
<glyph unicode="R" horiz-adv-x="2150" d="M189 -240q342 123 372 549v1100l465 -47q936 -293 936 -988q0 -302 -181 -687l-231 172q151 308 151 539q0 464 -601 638l-228 60l-5 -1319q-72 -77 -216 -191z" />
<glyph unicode="S" horiz-adv-x="2150" d="M218 763q244 406 520 559q232 132 450 132q44 0 88 -6q262 -29 429 -133q153 -96 228 -123q-100 -111 -204 -318q-111 108 -271 179q-108 47 -231 47q-63 0 -123 -10q-195 -28 -259 -92t-99 -158q185 -61 305 -145q562 -402 562 -703q0 -121 -107 -269 q-85 -117 -266 -128q35 45 99 237q5 17 5 33q0 193 -598 638q-272 199 -528 260z" />
<glyph unicode="T" horiz-adv-x="2150" d="M200 274v381h684v685h385q-126 -171 -126 -342q0 -172 126 -343h682v-381h-682v-685h-385q134 172 134 342q0 171 -134 343h-684z" />
<glyph unicode="U" horiz-adv-x="2150" d="M183 521v893h249v-686q251 -184 527 -492q117 -137 160 -197q502 255 502 779q0 201 -90 324q-63 82 -140 100v172h559q18 -131 18 -284q0 -416 -70 -662q-79 -299 -277 -452q-231 -179 -335 -252l-120 -80q-146 -91 -224 -95v3q-32 163 -163 359q-201 294 -566 535 q-19 11 -30 35z" />
<glyph unicode="V" horiz-adv-x="2150" d="M129 158q189 197 375 607q111 235 111 472q0 70 -11 149h347q4 -18 4 -61q0 -28 -1 -44q-3 -48 -26 -255q-22 -167 -135 -398q-109 -221 -194 -299q162 -111 347 -182q75 -28 256 -112q233 236 398 616q121 287 121 505q0 71 -14 141l315 -13q-108 -1023 -716 -1688z" />
<glyph unicode="W" horiz-adv-x="2150" d="M84 1370h338l182 -394l221 394h365l-266 -453q178 -397 246 -591q78 118 478 815q17 29 19 32h399l-953 -1590q-101 248 -224 596q-93 262 -160 364l-172 -256z" />
<glyph unicode="X" horiz-adv-x="2150" d="M225 1366h53q22 -31 136 -112q102 -72 191 -261q57 250 570 347q172 34 408 49q9 0 27 -0.5t27 -0.5q93 0 289 11v-1213q-32 -111 -87 -212q-110 -201 -279 -299q-147 -87 -349 -87q-29 0 -64 10q0 71 -8 169q-1 24 -10 169q31 -3 94 -3q206 0 307 128l97 97l-3 924 q-556 -27 -730 -240q-177 -212 -204 -858h-29z" />
<glyph unicode="Y" horiz-adv-x="2150" d="M202 1051l222 224l197 -255q141 -195 459 -306q13 144 18 288v12q0 114 -66 282l38 7q70 12 194 51q158 48 161 49q20 -42 31 -89q15 -72 15 -373q0 -128 -3 -222q148 15 480 332l-51 -524q-294 -174 -475 -194q-37 -170 -81 -275q-115 -270 -363 -472q-53 37 -99 76 q-80 62 -169 151q130 115 202 247q65 120 99 304q-327 81 -566 340q-174 182 -243 347z" />
<glyph unicode="Z" horiz-adv-x="2150" d="M200 155v391l664 -381q41 281 41 585q0 302 -41 644l1086 -414v-399q-26 -187 -148 -365h-123l3 508l-537 207v-1343z" />
<glyph unicode="[" d="M184 -83v1493h860v-1493h-860zM292 18h636v1263h-636v-1263z" />
<glyph unicode="\" d="M184 -83v1493h860v-1493h-860zM292 18h636v1263h-636v-1263z" />
<glyph unicode="]" d="M184 -83v1493h860v-1493h-860zM292 18h636v1263h-636v-1263z" />
<glyph unicode="^" d="M184 -83v1493h860v-1493h-860zM292 18h636v1263h-636v-1263z" />
<glyph unicode="_" d="M184 -83v1493h860v-1493h-860zM292 18h636v1263h-636v-1263z" />
<glyph unicode="`" d="M184 -83v1493h860v-1493h-860zM292 18h636v1263h-636v-1263z" />
<glyph unicode="a" horiz-adv-x="2150" d="M179 -318q196 297 196 521q26 174 26 326q0 373 -153 642q192 150 273 207h370q-275 -346 -275 -663q0 -17 2 -49v-1076h-439v92zM858 -90l784 5v1451h330v-1776h-746z" />
<glyph unicode="b" horiz-adv-x="2150" d="M176 -357v1685l1459 -1257q51 225 51 437q0 214 -51 413l-201 2v149l541 307v-1786h-327l-1133 996l3 -637q9 -12 73 -88l75 -83v-138h-490z" />
<glyph unicode="c" horiz-adv-x="2150" d="M171 -412v1774l336 -315v-1124h1002l261 -335h-1599zM853 52q384 1069 1126 1325v-1738l-310 411q109 201 109 379q0 177 -109 336q-222 -107 -436 -713h-380z" />
<glyph unicode="d" horiz-adv-x="2150" d="M230 -406v1170q35 408 288 618h437q-316 -277 -355 -723v-789h595v1499l726 -266l-51 -89q-78 6 -156 6t-156 -6q-109 -352 -109 -710t109 -710h-1328z" />
<glyph unicode="e" horiz-adv-x="2150" d="M201 319q137 933 875 1057h355v-25q-807 -307 -807 -842v-10q758 -247 852 -906h-400v5q0 489 -875 721zM1122 542l491 695h336v-361l-754 -382z" />
<glyph unicode="f" horiz-adv-x="2150" d="M192 -413v1387q66 306 251 393h461q-344 -193 -359 -610v-869h432q97 519 652 709l-3 783h333v-1013q-719 -255 -723 -780h-1044z" />
<glyph unicode="g" horiz-adv-x="2150" d="M204 364q204 807 1013 1011v-309q-491 -192 -657 -588l566 -480l326 297q87 266 87 532t-87 533h272v-1144l223 -208v-415l-391 410l-425 -351z" />
<glyph unicode="h" horiz-adv-x="2150" d="M216 1351v28h293q-1 -29 -1 -86q0 -825 706 -1324l284 240q-330 232 -488 659q526 153 659 501l194 -227l-475 -373q180 -340 547 -544l-736 -634q-983 545 -983 1760z" />
<glyph unicode="i" horiz-adv-x="1843" d="M63 120l7 124l591 295v842h341v-672l779 346v-653l-180 185l-599 -172q3 -510 231 -653l-304 -170q-213 256 -268 715z" />
<glyph unicode="j" horiz-adv-x="2150" d="M189 1145q105 85 238 135q212 86 524 98q528 -12 1010 -281l-541 -473q-99 -86 -99 -160q0 -10 1 -15l574 -567l-85 -290h-1496l604 776zM683 1015l466 -376l293 356q-182 108 -381 108q-179 0 -378 -88zM768 -178l724 -5l-350 373z" />
<glyph unicode="k" horiz-adv-x="2150" d="M233 418v907h318l-2 -781q58 -568 494 -643h522q84 238 84 508q0 223 -58 464q-43 312 -384 504h460q185 -86 251 -392v-1384h-1043q-486 98 -642 817z" />
<glyph unicode="l" horiz-adv-x="2150" d="M419 -408v1310q516 301 813 734l242 -257l-724 -649v-825h981v-313h-1312z" />
<glyph unicode="m" horiz-adv-x="2150" d="M222 574v370l761 455v-1794l-262 143v1112zM1115 -407v1806l813 -486v-368l-551 315v-1112z" />
<glyph unicode="n" horiz-adv-x="2150" d="M198 58v381l513 -295v1143l270 148v-1845zM1116 -410v1857l269 -160v-1143l567 324v-378z" />
<glyph unicode="o" horiz-adv-x="2150" d="M281 391q0 323 232 562q6 6 13 12t16.5 14t14.5 12q99 84 196 130l182 -429l-102 -84l-161 166q-156 -163 -156 -389q0 -229 161 -390q169 -164 388 -164h10q227 5 391 169q169 166 169 396q0 20 -3 33q-5 93 -20 125q-39 130 -146 233q-163 163 -381 163h-10 q-31 0 -69 -5v513l199 102v-385q253 -43 432 -222q233 -240 233 -562q0 -332 -233 -565q-232 -232 -562 -232q-327 0 -562 232q-232 232 -232 565z" />
<glyph unicode="p" horiz-adv-x="2150" d="M250 -405v1783h959q204 -497 587 -497q51 0 105 9v-749q-246 -517 -489 -517q-26 0 -51 6q285 356 285 780q0 120 -20 234h-7q-330 0 -583 419h-393v-1462l-8 -6h-385z" />
<glyph unicode="q" horiz-adv-x="2150" d="M179 513q0 59 9 116q60 394 414 558q340 160 642 160h28q126 -126 134 -283q-556 -49 -733 -207q-200 -178 -200 -367q0 -43 8 -78q49 -228 225 -389q163 121 396 121q236 0 465 -113q56 -26 81 -36q9 228 9 421q0 1014 -236 1014l550 71l-25 -1907q-158 37 -197 58 q-66 34 -212 101q-289 131 -412 131q-121 0 -207 -23q-155 -42 -265 -164q-20 -30 -28 -43q-69 65 -111 114q-335 391 -335 745z" />
<glyph unicode="r" horiz-adv-x="2150" d="M189 -240q342 123 372 549v1100l465 -47q936 -293 936 -988q0 -302 -181 -687l-231 172q151 308 151 539q0 464 -601 638l-228 60l-5 -1319q-72 -77 -216 -191z" />
<glyph unicode="s" horiz-adv-x="2150" d="M218 763q244 406 520 559q232 132 450 132q44 0 88 -6q262 -29 429 -133q153 -96 228 -123q-100 -111 -204 -318q-111 108 -271 179q-108 47 -231 47q-63 0 -123 -10q-195 -28 -259 -92t-99 -158q185 -61 305 -145q562 -402 562 -703q0 -121 -107 -269 q-85 -117 -266 -128q35 45 99 237q5 17 5 33q0 193 -598 638q-272 199 -528 260z" />
<glyph unicode="t" horiz-adv-x="2150" d="M200 274v381h684v685h385q-126 -171 -126 -342q0 -172 126 -343h682v-381h-682v-685h-385q134 172 134 342q0 171 -134 343h-684z" />
<glyph unicode="u" horiz-adv-x="2150" d="M183 521v893h249v-686q251 -184 527 -492q117 -137 160 -197q502 255 502 779q0 201 -90 324q-63 82 -140 100v172h559q18 -131 18 -284q0 -416 -70 -662q-79 -299 -277 -452q-231 -179 -335 -252l-120 -80q-146 -91 -224 -95v3q-32 163 -163 359q-201 294 -566 535 q-19 11 -30 35z" />
<glyph unicode="v" horiz-adv-x="2150" d="M129 158q189 197 375 607q111 235 111 472q0 70 -11 149h347q4 -18 4 -61q0 -28 -1 -44q-3 -48 -26 -255q-22 -167 -135 -398q-109 -221 -194 -299q162 -111 347 -182q75 -28 256 -112q233 236 398 616q121 287 121 505q0 71 -14 141l315 -13q-108 -1023 -716 -1688z" />
<glyph unicode="w" horiz-adv-x="2150" d="M84 1370h338l182 -394l221 394h365l-266 -453q178 -397 246 -591q78 118 478 815q17 29 19 32h399l-953 -1590q-101 248 -224 596q-93 262 -160 364l-172 -256z" />
<glyph unicode="x" horiz-adv-x="2150" d="M225 1366h53q22 -31 136 -112q102 -72 191 -261q57 250 570 347q172 34 408 49q9 0 27 -0.5t27 -0.5q93 0 289 11v-1213q-32 -111 -87 -212q-110 -201 -279 -299q-147 -87 -349 -87q-29 0 -64 10q0 71 -8 169q-1 24 -10 169q31 -3 94 -3q206 0 307 128l97 97l-3 924 q-556 -27 -730 -240q-177 -212 -204 -858h-29z" />
<glyph unicode="y" horiz-adv-x="2150" d="M202 1051l222 224l197 -255q141 -195 459 -306q13 144 18 288v12q0 114 -66 282l38 7q70 12 194 51q158 48 161 49q20 -42 31 -89q15 -72 15 -373q0 -128 -3 -222q148 15 480 332l-51 -524q-294 -174 -475 -194q-37 -170 -81 -275q-115 -270 -363 -472q-53 37 -99 76 q-80 62 -169 151q130 115 202 247q65 120 99 304q-327 81 -566 340q-174 182 -243 347z" />
<glyph unicode="z" horiz-adv-x="2150" d="M200 155v391l664 -381q41 281 41 585q0 302 -41 644l1086 -414v-399q-26 -187 -148 -365h-123l3 508l-537 207v-1343z" />
<glyph unicode="{" d="M184 -83v1493h860v-1493h-860zM292 18h636v1263h-636v-1263z" />
<glyph unicode="|" d="M184 -83v1493h860v-1493h-860zM292 18h636v1263h-636v-1263z" />
<glyph unicode="}" d="M184 -83v1493h860v-1493h-860zM292 18h636v1263h-636v-1263z" />
<glyph unicode="~" d="M184 -83v1493h860v-1493h-860zM292 18h636v1263h-636v-1263z" />
<glyph d="M184 -83v1493h860v-1493h-860zM292 18h636v1263h-636v-1263z" />
<glyph d="M184 -83v1493h860v-1493h-860zM292 18h636v1263h-636v-1263z" />
<glyph d="M184 -83v1493h860v-1493h-860zM292 18h636v1263h-636v-1263z" />
<glyph d="M184 -83v1493h860v-1493h-860zM292 18h636v1263h-636v-1263z" />
<glyph d="M184 -83v1493h860v-1493h-860zM292 18h636v1263h-636v-1263z" />
<glyph d="M184 -83v1493h860v-1493h-860zM292 18h636v1263h-636v-1263z" />
<glyph unicode="&#x85;" d="M184 -83v1493h860v-1493h-860zM292 18h636v1263h-636v-1263z" />
<glyph d="M184 -83v1493h860v-1493h-860zM292 18h636v1263h-636v-1263z" />
<glyph d="M184 -83v1493h860v-1493h-860zM292 18h636v1263h-636v-1263z" />
<glyph d="M184 -83v1493h860v-1493h-860zM292 18h636v1263h-636v-1263z" />
<glyph d="M184 -83v1493h860v-1493h-860zM292 18h636v1263h-636v-1263z" />
<glyph d="M184 -83v1493h860v-1493h-860zM292 18h636v1263h-636v-1263z" />
<glyph d="M184 -83v1493h860v-1493h-860zM292 18h636v1263h-636v-1263z" />
<glyph d="M184 -83v1493h860v-1493h-860zM292 18h636v1263h-636v-1263z" />
<glyph d="M184 -83v1493h860v-1493h-860zM292 18h636v1263h-636v-1263z" />
<glyph d="M184 -83v1493h860v-1493h-860zM292 18h636v1263h-636v-1263z" />
<glyph d="M184 -83v1493h860v-1493h-860zM292 18h636v1263h-636v-1263z" />
<glyph d="M184 -83v1493h860v-1493h-860zM292 18h636v1263h-636v-1263z" />
<glyph d="M184 -83v1493h860v-1493h-860zM292 18h636v1263h-636v-1263z" />
<glyph d="M184 -83v1493h860v-1493h-860zM292 18h636v1263h-636v-1263z" />
<glyph d="M184 -83v1493h860v-1493h-860zM292 18h636v1263h-636v-1263z" />
<glyph d="M184 -83v1493h860v-1493h-860zM292 18h636v1263h-636v-1263z" />
<glyph d="M184 -83v1493h860v-1493h-860zM292 18h636v1263h-636v-1263z" />
<glyph d="M184 -83v1493h860v-1493h-860zM292 18h636v1263h-636v-1263z" />
<glyph d="M184 -83v1493h860v-1493h-860zM292 18h636v1263h-636v-1263z" />
<glyph d="M184 -83v1493h860v-1493h-860zM292 18h636v1263h-636v-1263z" />
<glyph d="M184 -83v1493h860v-1493h-860zM292 18h636v1263h-636v-1263z" />
<glyph d="M184 -83v1493h860v-1493h-860zM292 18h636v1263h-636v-1263z" />
<glyph d="M184 -83v1493h860v-1493h-860zM292 18h636v1263h-636v-1263z" />
<glyph d="M184 -83v1493h860v-1493h-860zM292 18h636v1263h-636v-1263z" />
<glyph d="M184 -83v1493h860v-1493h-860zM292 18h636v1263h-636v-1263z" />
<glyph d="M184 -83v1493h860v-1493h-860zM292 18h636v1263h-636v-1263z" />
<glyph d="M184 -83v1493h860v-1493h-860zM292 18h636v1263h-636v-1263z" />
<glyph unicode="&#xa0;" d="M184 -83v1493h860v-1493h-860zM292 18h636v1263h-636v-1263z" />
<glyph unicode="&#xa1;" d="M184 -83v1493h860v-1493h-860zM292 18h636v1263h-636v-1263z" />
<glyph unicode="&#xa2;" d="M184 -83v1493h860v-1493h-860zM292 18h636v1263h-636v-1263z" />
<glyph unicode="&#xa3;" d="M184 -83v1493h860v-1493h-860zM292 18h636v1263h-636v-1263z" />
<glyph unicode="&#xa4;" d="M184 -83v1493h860v-1493h-860zM292 18h636v1263h-636v-1263z" />
<glyph unicode="&#xa5;" d="M184 -83v1493h860v-1493h-860zM292 18h636v1263h-636v-1263z" />
<glyph unicode="&#xa6;" d="M184 -83v1493h860v-1493h-860zM292 18h636v1263h-636v-1263z" />
<glyph unicode="&#xa7;" d="M184 -83v1493h860v-1493h-860zM292 18h636v1263h-636v-1263z" />
<glyph unicode="&#xa8;" d="M184 -83v1493h860v-1493h-860zM292 18h636v1263h-636v-1263z" />
<glyph unicode="&#xa9;" d="M184 -83v1493h860v-1493h-860zM292 18h636v1263h-636v-1263z" />
<glyph unicode="&#xaa;" d="M184 -83v1493h860v-1493h-860zM292 18h636v1263h-636v-1263z" />
<glyph unicode="&#xab;" d="M184 -83v1493h860v-1493h-860zM292 18h636v1263h-636v-1263z" />
<glyph unicode="&#xac;" d="M184 -83v1493h860v-1493h-860zM292 18h636v1263h-636v-1263z" />
<glyph unicode="&#xad;" d="M184 -83v1493h860v-1493h-860zM292 18h636v1263h-636v-1263z" />
<glyph unicode="&#xae;" d="M184 -83v1493h860v-1493h-860zM292 18h636v1263h-636v-1263z" />
<glyph unicode="&#xaf;" d="M184 -83v1493h860v-1493h-860zM292 18h636v1263h-636v-1263z" />
<glyph unicode="&#xb0;" d="M184 -83v1493h860v-1493h-860zM292 18h636v1263h-636v-1263z" />
<glyph unicode="&#xb1;" d="M184 -83v1493h860v-1493h-860zM292 18h636v1263h-636v-1263z" />
<glyph unicode="&#xb2;" d="M184 -83v1493h860v-1493h-860zM292 18h636v1263h-636v-1263z" />
<glyph unicode="&#xb3;" d="M184 -83v1493h860v-1493h-860zM292 18h636v1263h-636v-1263z" />
<glyph unicode="&#xb4;" d="M184 -83v1493h860v-1493h-860zM292 18h636v1263h-636v-1263z" />
<glyph unicode="&#xb5;" d="M184 -83v1493h860v-1493h-860zM292 18h636v1263h-636v-1263z" />
<glyph unicode="&#xb6;" d="M184 -83v1493h860v-1493h-860zM292 18h636v1263h-636v-1263z" />
<glyph unicode="&#xb7;" d="M184 -83v1493h860v-1493h-860zM292 18h636v1263h-636v-1263z" />
<glyph unicode="&#xb8;" d="M184 -83v1493h860v-1493h-860zM292 18h636v1263h-636v-1263z" />
<glyph unicode="&#xb9;" d="M184 -83v1493h860v-1493h-860zM292 18h636v1263h-636v-1263z" />
<glyph unicode="&#xba;" d="M184 -83v1493h860v-1493h-860zM292 18h636v1263h-636v-1263z" />
<glyph unicode="&#xbb;" d="M184 -83v1493h860v-1493h-860zM292 18h636v1263h-636v-1263z" />
<glyph unicode="&#xbc;" d="M184 -83v1493h860v-1493h-860zM292 18h636v1263h-636v-1263z" />
<glyph unicode="&#xbd;" d="M184 -83v1493h860v-1493h-860zM292 18h636v1263h-636v-1263z" />
<glyph unicode="&#xbe;" d="M184 -83v1493h860v-1493h-860zM292 18h636v1263h-636v-1263z" />
<glyph unicode="&#xbf;" d="M184 -83v1493h860v-1493h-860zM292 18h636v1263h-636v-1263z" />
<glyph unicode="&#xc0;" d="M184 -83v1493h860v-1493h-860zM292 18h636v1263h-636v-1263z" />
<glyph unicode="&#xc1;" d="M184 -83v1493h860v-1493h-860zM292 18h636v1263h-636v-1263z" />
<glyph unicode="&#xc2;" d="M184 -83v1493h860v-1493h-860zM292 18h636v1263h-636v-1263z" />
<glyph unicode="&#xc3;" d="M184 -83v1493h860v-1493h-860zM292 18h636v1263h-636v-1263z" />
<glyph unicode="&#xc4;" d="M184 -83v1493h860v-1493h-860zM292 18h636v1263h-636v-1263z" />
<glyph unicode="&#xc5;" d="M184 -83v1493h860v-1493h-860zM292 18h636v1263h-636v-1263z" />
<glyph unicode="&#xc6;" d="M184 -83v1493h860v-1493h-860zM292 18h636v1263h-636v-1263z" />
<glyph unicode="&#xc7;" d="M184 -83v1493h860v-1493h-860zM292 18h636v1263h-636v-1263z" />
<glyph unicode="&#xc8;" d="M184 -83v1493h860v-1493h-860zM292 18h636v1263h-636v-1263z" />
<glyph unicode="&#xc9;" d="M184 -83v1493h860v-1493h-860zM292 18h636v1263h-636v-1263z" />
<glyph unicode="&#xca;" d="M184 -83v1493h860v-1493h-860zM292 18h636v1263h-636v-1263z" />
<glyph unicode="&#xcb;" d="M184 -83v1493h860v-1493h-860zM292 18h636v1263h-636v-1263z" />
<glyph unicode="&#xcc;" d="M184 -83v1493h860v-1493h-860zM292 18h636v1263h-636v-1263z" />
<glyph unicode="&#xcd;" d="M184 -83v1493h860v-1493h-860zM292 18h636v1263h-636v-1263z" />
<glyph unicode="&#xce;" d="M184 -83v1493h860v-1493h-860zM292 18h636v1263h-636v-1263z" />
<glyph unicode="&#xcf;" d="M184 -83v1493h860v-1493h-860zM292 18h636v1263h-636v-1263z" />
<glyph unicode="&#xd0;" d="M184 -83v1493h860v-1493h-860zM292 18h636v1263h-636v-1263z" />
<glyph unicode="&#xd1;" d="M184 -83v1493h860v-1493h-860zM292 18h636v1263h-636v-1263z" />
<glyph unicode="&#xd2;" d="M184 -83v1493h860v-1493h-860zM292 18h636v1263h-636v-1263z" />
<glyph unicode="&#xd3;" d="M184 -83v1493h860v-1493h-860zM292 18h636v1263h-636v-1263z" />
<glyph unicode="&#xd4;" d="M184 -83v1493h860v-1493h-860zM292 18h636v1263h-636v-1263z" />
<glyph unicode="&#xd5;" d="M184 -83v1493h860v-1493h-860zM292 18h636v1263h-636v-1263z" />
<glyph unicode="&#xd6;" d="M184 -83v1493h860v-1493h-860zM292 18h636v1263h-636v-1263z" />
<glyph unicode="&#xd7;" d="M184 -83v1493h860v-1493h-860zM292 18h636v1263h-636v-1263z" />
<glyph unicode="&#xd8;" d="M184 -83v1493h860v-1493h-860zM292 18h636v1263h-636v-1263z" />
<glyph unicode="&#xd9;" d="M184 -83v1493h860v-1493h-860zM292 18h636v1263h-636v-1263z" />
<glyph unicode="&#xda;" d="M184 -83v1493h860v-1493h-860zM292 18h636v1263h-636v-1263z" />
<glyph unicode="&#xdb;" d="M184 -83v1493h860v-1493h-860zM292 18h636v1263h-636v-1263z" />
<glyph unicode="&#xdc;" d="M184 -83v1493h860v-1493h-860zM292 18h636v1263h-636v-1263z" />
<glyph unicode="&#xdd;" d="M184 -83v1493h860v-1493h-860zM292 18h636v1263h-636v-1263z" />
<glyph unicode="&#xde;" d="M184 -83v1493h860v-1493h-860zM292 18h636v1263h-636v-1263z" />
<glyph unicode="&#xdf;" d="M184 -83v1493h860v-1493h-860zM292 18h636v1263h-636v-1263z" />
<glyph unicode="&#xe0;" d="M184 -83v1493h860v-1493h-860zM292 18h636v1263h-636v-1263z" />
<glyph unicode="&#xe1;" d="M184 -83v1493h860v-1493h-860zM292 18h636v1263h-636v-1263z" />
<glyph unicode="&#xe2;" d="M184 -83v1493h860v-1493h-860zM292 18h636v1263h-636v-1263z" />
<glyph unicode="&#xe3;" d="M184 -83v1493h860v-1493h-860zM292 18h636v1263h-636v-1263z" />
<glyph unicode="&#xe4;" d="M184 -83v1493h860v-1493h-860zM292 18h636v1263h-636v-1263z" />
<glyph unicode="&#xe5;" d="M184 -83v1493h860v-1493h-860zM292 18h636v1263h-636v-1263z" />
<glyph unicode="&#xe6;" d="M184 -83v1493h860v-1493h-860zM292 18h636v1263h-636v-1263z" />
<glyph unicode="&#xe7;" d="M184 -83v1493h860v-1493h-860zM292 18h636v1263h-636v-1263z" />
<glyph unicode="&#xe8;" d="M184 -83v1493h860v-1493h-860zM292 18h636v1263h-636v-1263z" />
<glyph unicode="&#xe9;" d="M184 -83v1493h860v-1493h-860zM292 18h636v1263h-636v-1263z" />
<glyph unicode="&#xea;" d="M184 -83v1493h860v-1493h-860zM292 18h636v1263h-636v-1263z" />
<glyph unicode="&#xeb;" d="M184 -83v1493h860v-1493h-860zM292 18h636v1263h-636v-1263z" />
<glyph unicode="&#xec;" d="M184 -83v1493h860v-1493h-860zM292 18h636v1263h-636v-1263z" />
<glyph unicode="&#xed;" d="M184 -83v1493h860v-1493h-860zM292 18h636v1263h-636v-1263z" />
<glyph unicode="&#xee;" d="M184 -83v1493h860v-1493h-860zM292 18h636v1263h-636v-1263z" />
<glyph unicode="&#xef;" d="M184 -83v1493h860v-1493h-860zM292 18h636v1263h-636v-1263z" />
<glyph unicode="&#xf0;" d="M184 -83v1493h860v-1493h-860zM292 18h636v1263h-636v-1263z" />
<glyph unicode="&#xf1;" d="M184 -83v1493h860v-1493h-860zM292 18h636v1263h-636v-1263z" />
<glyph unicode="&#xf2;" d="M184 -83v1493h860v-1493h-860zM292 18h636v1263h-636v-1263z" />
<glyph unicode="&#xf3;" d="M184 -83v1493h860v-1493h-860zM292 18h636v1263h-636v-1263z" />
<glyph unicode="&#xf4;" d="M184 -83v1493h860v-1493h-860zM292 18h636v1263h-636v-1263z" />
<glyph unicode="&#xf5;" d="M184 -83v1493h860v-1493h-860zM292 18h636v1263h-636v-1263z" />
<glyph unicode="&#xf6;" d="M184 -83v1493h860v-1493h-860zM292 18h636v1263h-636v-1263z" />
<glyph unicode="&#xf7;" d="M184 -83v1493h860v-1493h-860zM292 18h636v1263h-636v-1263z" />
<glyph unicode="&#xf8;" d="M184 -83v1493h860v-1493h-860zM292 18h636v1263h-636v-1263z" />
<glyph unicode="&#xf9;" d="M184 -83v1493h860v-1493h-860zM292 18h636v1263h-636v-1263z" />
<glyph unicode="&#xfa;" d="M184 -83v1493h860v-1493h-860zM292 18h636v1263h-636v-1263z" />
<glyph unicode="&#xfb;" d="M184 -83v1493h860v-1493h-860zM292 18h636v1263h-636v-1263z" />
<glyph unicode="&#xfc;" d="M184 -83v1493h860v-1493h-860zM292 18h636v1263h-636v-1263z" />
<glyph unicode="&#xfd;" d="M184 -83v1493h860v-1493h-860zM292 18h636v1263h-636v-1263z" />
<glyph unicode="&#xfe;" d="M184 -83v1493h860v-1493h-860zM292 18h636v1263h-636v-1263z" />
<glyph unicode="&#xff;" d="M184 -83v1493h860v-1493h-860zM292 18h636v1263h-636v-1263z" />
<glyph unicode="&#x2000;" horiz-adv-x="818" />
<glyph unicode="&#x2001;" horiz-adv-x="1636" />
<glyph unicode="&#x2002;" horiz-adv-x="818" />
<glyph unicode="&#x2003;" horiz-adv-x="1636" />
<glyph unicode="&#x2004;" horiz-adv-x="545" />
<glyph unicode="&#x2005;" horiz-adv-x="409" />
<glyph unicode="&#x2006;" horiz-adv-x="272" />
<glyph unicode="&#x2007;" horiz-adv-x="272" />
<glyph unicode="&#x2008;" horiz-adv-x="204" />
<glyph unicode="&#x2009;" horiz-adv-x="327" />
<glyph unicode="&#x200a;" horiz-adv-x="90" />
<glyph unicode="&#x2010;" d="M184 -83v1493h860v-1493h-860zM292 18h636v1263h-636v-1263z" />
<glyph unicode="&#x2011;" d="M184 -83v1493h860v-1493h-860zM292 18h636v1263h-636v-1263z" />
<glyph unicode="&#x2012;" d="M184 -83v1493h860v-1493h-860zM292 18h636v1263h-636v-1263z" />
<glyph unicode="&#x2013;" horiz-adv-x="1392" d="M184 -83v1493h1024v-1493h-1024zM313 18h757v1263h-757v-1263z" />
<glyph unicode="&#x2014;" horiz-adv-x="2416" d="M184 -83v1493h2048v-1493h-2048zM441 18h1515v1263h-1515v-1263z" />
<glyph unicode="&#x202f;" horiz-adv-x="327" />
<glyph unicode="&#x205f;" horiz-adv-x="409" />
<glyph unicode="&#x25fc;" horiz-adv-x="1402" d="M0 0v1403h1403v-1403h-1403z" />
</font>
</defs>
</svg>
